<svg xmlns="http://www.w3.org/2000/svg" version="1.1" xmlns:xlink="http://www.w3.org/1999/xlink" width="577.597" height="441.626"><svg xmlns="http://www.w3.org/2000/svg" viewBox="-1.638 0.762 577.597 441.626">
  <path fill-rule="evenodd" stroke="rgb(0, 0, 0)" stroke-width="4px" stroke-linecap="butt" stroke-linejoin="miter" fill="rgb(0, 0, 0)" d="M 423.803 4.917 C 455.681 -1.064 492.473 16.958 509.893 40.956 C 513.23 46.962 516.567 52.97 519.904 58.976 C 537.587 64.315 555.276 69.655 572.959 74.993 C 569.676 88.366 537.006 92.744 525.91 99.019 C 522.907 111.031 519.904 123.047 516.901 135.058 C 511.535 165.952 523.706 195.724 516.901 225.156 C 501.291 292.671 454.984 334.252 394.773 357.299 C 379.425 360.635 364.073 363.973 348.725 367.31 C 355.02 378.514 384.882 418.131 395.774 422.369 C 412.828 429.006 435.247 420.668 449.831 429.377 C 449.831 432.713 449.831 436.051 449.831 439.388 C 422.138 439.054 394.437 438.72 366.744 438.387 C 366.076 437.719 365.409 437.052 364.742 436.384 C 362.278 433.141 361.526 429.823 362.739 425.373 C 365.409 424.705 368.079 424.038 370.748 423.37 C 361.727 405.659 341.275 380.128 325.701 368.311 C 306.643 368.637 285.307 367.435 270.643 362.304 C 269.976 362.972 269.308 363.639 268.641 364.306 C 279.651 383.325 290.665 402.35 301.676 421.368 C 316.908 431.358 352.88 413.604 349.726 439.388 C 312.357 439.054 274.977 438.72 237.609 438.387 C 237.609 436.385 237.609 434.382 237.609 432.38 C 239.277 430.712 240.946 429.043 242.614 427.375 C 249.189 421.966 270.198 423.996 279.653 422.369 C 278.136 412.189 251.452 362.747 244.616 356.298 C 228.267 349.291 211.913 342.282 195.565 335.275 C 185.045 330.021 164.498 316.084 147.514 320.259 C 124.194 325.991 58.948 386.525 36.398 380.324 C 33.729 377.654 31.059 374.984 28.39 372.315 C 20.221 368.797 10.298 375.044 2.363 370.313 C 2.029 369.646 1.695 368.978 1.362 368.311 C 1.795 361.277 3.424 361.21 6.367 357.299 C 22.048 347.289 37.734 337.276 53.416 327.266 C 78.44 313.253 103.471 299.235 128.494 285.221 C 156.187 252.188 183.889 219.146 211.581 186.114 C 240.413 150.38 283.703 125.761 319.694 97.017 C 338.857 81.714 347.235 54.933 362.739 35.951 C 378.246 16.966 391.926 10.899 423.803 4.917 Z M 412.792 48.965 C 336.111 95.055 442.252 121.646 443.824 162.088 C 442.823 162.088 441.822 162.088 440.821 162.088 C 426.977 156.434 413.773 149.551 395.774 148.072 C 395.774 148.406 395.774 148.74 395.774 149.073 C 424.473 239.878 319.616 283.129 255.627 297.234 C 230.27 300.237 204.905 303.241 179.548 306.244 C 179.882 306.911 180.215 307.578 180.549 308.246 C 210.848 318.103 237.17 337.886 271.644 347.288 C 381.088 377.137 478.228 309.45 499.883 230.161 C 506.978 204.182 497.571 171.762 500.884 145.069 C 504.22 129.053 507.558 113.033 510.894 97.017 C 505.556 96.683 500.216 96.35 494.878 96.016 C 494.878 95.015 494.878 94.014 494.878 93.013 C 498.214 89.676 501.552 86.339 504.888 83.002 C 504.221 82.335 503.553 81.667 502.886 81 C 474.339 11.1 411.975 49.456 412.792 48.965 Z M 459.322 65.67 C 474.963 79.915 450.963 97.101 438.817 87.008 C 424.491 75.105 440.827 48.825 459.322 65.67 Z M 249.621 201.13 C 231.27 214.476 212.914 227.827 194.564 241.173 C 205.348 237.757 250.872 209.28 249.621 201.13 Z M 298.672 202.131 C 275.453 221.037 205.134 260.93 174.543 271.206 C 174.543 271.539 174.543 271.873 174.543 272.207 C 176.211 272.207 177.88 272.207 179.548 272.207 C 224.088 263.512 249.366 248.869 277.648 229.158 C 284.801 224.173 299.984 211.324 298.672 202.131 Z M 340.716 212.142 C 315.79 233.905 262.983 268.81 226.597 276.211 C 226.597 276.878 226.597 277.546 226.597 278.213 C 260.127 274.474 339.109 251.879 340.716 212.142 Z" style="stroke-width: 4;"></path>
</svg><style>@media (prefers-color-scheme: light) { :root { filter: none; } }
@media (prefers-color-scheme: dark) { :root { filter: invert(100%); } }
</style></svg>